<?xml version="1.0" standalone="no"?>
<!DOCTYPE svg PUBLIC "-//W3C//DTD SVG 20010904//EN"
 "http://www.w3.org/TR/2001/REC-SVG-20010904/DTD/svg10.dtd">
<svg version="1.0" xmlns="http://www.w3.org/2000/svg"
 width="192.000000pt" height="192.000000pt" viewBox="0 0 192.000000 192.000000"
 preserveAspectRatio="xMidYMid meet">

<g transform="translate(0.000000,192.000000) scale(0.100000,-0.100000)"
fill="#000000" stroke="none">
<path d="M525 1376 c-109 -35 -203 -111 -256 -208 -33 -60 -34 -67 -34 -168 0
-95 3 -111 28 -162 34 -70 123 -154 203 -192 86 -41 211 -47 317 -16 43 13 82
28 87 35 8 9 -1 37 -30 98 l-40 86 -28 -15 c-15 -8 -55 -14 -92 -14 -54 0 -72
5 -103 25 -105 72 -103 241 4 312 49 32 134 36 186 9 l33 -16 42 86 c42 84 43
86 23 100 -64 47 -249 69 -340 40z"/>
<path d="M1098 1371 c-156 -50 -257 -157 -288 -305 -42 -203 99 -401 318 -447
76 -16 243 -7 302 17 117 46 210 139 246 246 25 76 16 206 -19 279 -47 97
-157 184 -272 213 -80 21 -215 20 -287 -3z m203 -202 c40 -14 85 -53 105 -91
22 -42 18 -126 -9 -172 -60 -106 -225 -110 -294 -8 -77 116 4 275 143 281 12
1 36 -4 55 -10z"/>
</g>
</svg>
